<svg width="24" height="26" viewBox="0 0 24 26" fill="none" xmlns="http://www.w3.org/2000/svg">
<path d="M20.671 20.749C21.4337 20.3072 22.0673 19.6731 22.5084 18.91C22.9496 18.1469 23.1828 17.2814 23.185 16.4V8.815C23.1836 7.93297 22.9508 7.06675 22.5099 6.30288C22.0689 5.539 21.4352 4.90424 20.672 4.462L14.105 0.671C13.3405 0.231242 12.474 -0.000198364 11.592 -0.000198364C10.71 -0.000198364 9.84351 0.231242 9.079 0.671L2.513 4.462C1.74985 4.90424 1.11612 5.539 0.675137 6.30288C0.234151 7.06675 0.00135148 7.93297 0 8.815L0 16.4C0.00135148 17.282 0.234151 18.1483 0.675137 18.9121C1.11612 19.676 1.74985 20.3108 2.513 20.753L9.079 24.54C9.84351 24.9798 10.71 25.2112 11.592 25.2112C12.474 25.2112 13.3405 24.9798 14.105 24.54L20.671 20.749ZM11.592 23.475C11.015 23.4752 10.4481 23.3238 9.948 23.036L3.382 19.245C2.88315 18.9558 2.46878 18.541 2.18016 18.0418C1.89154 17.5427 1.73875 16.9766 1.737 16.4V8.815C1.73822 8.23789 1.89077 7.6712 2.17942 7.17146C2.46806 6.67173 2.88272 6.25643 3.382 5.967L9.948 2.176C10.4484 1.8884 11.0154 1.73705 11.5925 1.73705C12.1696 1.73705 12.7366 1.8884 13.237 2.176L19.8 5.967C20.2993 6.25643 20.7139 6.67173 21.0026 7.17146C21.2912 7.6712 21.4438 8.23789 21.445 8.815V16.4C21.4433 16.9766 21.2905 17.5427 21.0018 18.0418C20.7132 18.541 20.2988 18.9558 19.8 19.245L13.234 23.036C12.7345 23.3235 12.1683 23.4749 11.592 23.475Z" fill="black"/>
<path d="M16.139 17.686C16.0072 17.6088 15.8572 17.5682 15.7045 17.5682C15.5518 17.5682 15.4018 17.6088 15.27 17.686L11.592 19.81L11.53 19.775L5.353 16.209V8.839C5.34536 8.61376 5.25051 8.4003 5.08847 8.24367C4.92643 8.08703 4.70987 7.99948 4.4845 7.99948C4.25913 7.99948 4.04258 8.08703 3.88054 8.24367C3.71849 8.4003 3.62365 8.61376 3.616 8.839V16.407C3.61678 16.652 3.68183 16.8925 3.80467 17.1045C3.92751 17.3165 4.10382 17.4925 4.316 17.615L10.897 21.415C11.1092 21.5369 11.3497 21.6011 11.5945 21.6011C11.8393 21.6011 12.0798 21.5369 12.292 21.415L16.142 19.192C16.2738 19.1156 16.3832 19.0059 16.4594 18.8739C16.5355 18.742 16.5757 18.5924 16.576 18.44C16.5769 18.2868 16.5369 18.1361 16.4601 18.0035C16.3833 17.871 16.2724 17.7614 16.139 17.686Z" fill="black"/>
<path d="M18.871 7.598L12.29 3.798C12.0778 3.67605 11.8373 3.61188 11.5925 3.61188C11.3477 3.61188 11.1072 3.67605 10.895 3.798L7.045 6.021C6.91321 6.09744 6.80378 6.20711 6.72762 6.33907C6.65147 6.47102 6.61125 6.62065 6.611 6.773C6.61145 6.92498 6.65176 7.07418 6.72789 7.20572C6.80402 7.33726 6.91331 7.44653 7.04487 7.52263C7.17642 7.59873 7.32564 7.639 7.47762 7.63941C7.6296 7.63983 7.77903 7.60038 7.911 7.525L11.59 5.401L11.652 5.437L17.829 9.003V16.373C17.8366 16.5982 17.9315 16.8117 18.0935 16.9683C18.2556 17.125 18.4721 17.2125 18.6975 17.2125C18.9229 17.2125 19.1394 17.125 19.3015 16.9683C19.4635 16.8117 19.5584 16.5982 19.566 16.373V8.806C19.5657 8.56149 19.5014 8.32131 19.3795 8.10938C19.2576 7.89744 19.0822 7.72113 18.871 7.598Z" fill="black"/>
</svg>
