<svg width="12" height="12" viewBox="0 0 12 12" fill="none" xmlns="http://www.w3.org/2000/svg">
<path d="M10.333 9H5.667L3 11V9H1.667C1.4901 9 1.32045 8.92973 1.19536 8.80464C1.07027 8.67955 1 8.5099 1 8.333V1.667C1 1.4901 1.07027 1.32045 1.19536 1.19536C1.32045 1.07027 1.4901 1 1.667 1H10.333C10.5099 1 10.6796 1.07027 10.8046 1.19536C10.9297 1.32045 11 1.4901 11 1.667V8.333C11 8.5099 10.9297 8.67955 10.8046 8.80464C10.6796 8.92973 10.5099 9 10.333 9V9Z" stroke="#3A8E82" stroke-width="1.2" stroke-linecap="round" stroke-linejoin="round"/>
<path d="M3.087 4H8.912" stroke="#3A8E82" stroke-width="1.2" stroke-linecap="round" stroke-linejoin="round"/>
<path d="M2.924 6H7.793" stroke="#3A8E82" stroke-width="1.2" stroke-linecap="round" stroke-linejoin="round"/>
</svg>
